<?xml version="1.0" standalone="no"?>
<!DOCTYPE svg PUBLIC "-//W3C//DTD SVG 20010904//EN"
 "http://www.w3.org/TR/2001/REC-SVG-20010904/DTD/svg10.dtd">
<svg version="1.0" xmlns="http://www.w3.org/2000/svg"
 width="700.000000pt" height="700.000000pt" viewBox="0 0 700.000000 700.000000"
 preserveAspectRatio="xMidYMid meet">
<metadata>
Created by potrace 1.14, written by Peter Selinger 2001-2017
</metadata>
<g transform="translate(0.000000,700.000000) scale(0.100000,-0.100000)"
fill="#000000" stroke="none">
<path d="M558 6688 c-233 -29 -333 -314 -170 -484 42 -44 102 -79 153 -88 13
-3 110 -5 215 -5 l191 -1 6 -32 c3 -18 17 -87 32 -153 45 -207 96 -449 101
-475 3 -14 7 -33 10 -42 5 -17 11 -43 20 -93 3 -16 10 -50 15 -75 6 -25 23
-106 39 -180 16 -74 40 -187 54 -250 71 -330 90 -418 121 -565 19 -88 48 -225
65 -305 17 -80 33 -154 36 -165 2 -11 11 -51 19 -90 8 -38 22 -104 30 -145 9
-41 20 -93 25 -115 8 -32 71 -326 85 -398 2 -10 6 -26 9 -35 3 -9 7 -28 10
-42 23 -132 60 -286 87 -360 55 -151 183 -314 319 -407 92 -63 242 -126 330
-139 19 -3 46 -7 60 -10 39 -7 3029 -6 3085 1 73 9 131 24 210 55 144 55 322
198 402 322 91 144 103 181 217 698 53 239 108 487 122 550 14 63 27 122 29
130 3 15 31 136 175 785 45 201 72 341 71 378 0 109 -64 205 -171 255 l-55 26
-2384 1 c-2373 0 -2384 0 -2392 20 -7 17 -44 179 -63 275 -3 14 -7 34 -9 45
-3 11 -12 56 -22 100 -9 44 -27 132 -41 195 -14 63 -38 176 -54 250 -92 431
-94 435 -166 498 -80 71 -107 75 -454 76 -168 1 -331 -2 -362 -6z m5518 -2041
c1 -1 -6 -40 -17 -87 -98 -435 -178 -796 -183 -820 -2 -14 -20 -97 -40 -185
-20 -88 -38 -169 -40 -180 -3 -11 -20 -90 -40 -175 -19 -85 -37 -166 -40 -180
-20 -106 -50 -218 -66 -251 -29 -55 -81 -106 -137 -132 l-48 -22 -1510 0
-1510 0 -55 31 c-71 40 -124 109 -144 188 -14 53 -98 438 -111 505 -2 13 -22
108 -44 210 -22 102 -43 201 -46 220 -3 19 -8 37 -10 41 -2 4 -7 22 -10 41 -3
19 -8 41 -10 49 -2 8 -6 26 -9 40 -2 14 -12 59 -20 100 -17 75 -64 299 -71
333 -2 10 -6 26 -9 35 -3 9 -7 28 -10 42 -10 62 -37 184 -42 191 -2 4 15 9 38
11 53 4 4180 -1 4184 -5z"/>
<path d="M2210 1444 c-209 -44 -386 -214 -441 -426 -19 -75 -22 -194 -7 -260
52 -226 231 -406 448 -452 64 -14 181 -14 250 -1 103 20 243 104 316 191 130
155 173 373 110 559 -58 168 -176 296 -334 360 -100 40 -233 52 -342 29z"/>
<path d="M5435 1448 c-130 -27 -238 -89 -327 -187 -202 -224 -197 -561 13
-785 300 -320 833 -200 973 217 32 96 37 167 20 280 -36 230 -210 414 -449
472 -44 11 -184 13 -230 3z"/>
</g>
</svg>
