<svg width="200" height="60" viewBox="0 0 200 60" fill="none" xmlns="http://www.w3.org/2000/svg">
<rect width="200" height="60" rx="8" fill="#0F52BA"/>
<path d="M35.48 44L35.44 25.44L26.24 40.8H23.92L14.72 25.68V44H9.76V16H14.04L25.16 34.56L36.08 16H40.36L40.4 44H35.48ZM57.6031 32.28L53.1631 36.84V44H47.9631V16H53.1631V30.36L67.0031 16H72.8431L61.0831 28.52L73.5631 44H67.4831L57.6031 32.28ZM85.1978 44.4C83.0378 44.4 80.9445 44.0933 78.9178 43.48C76.9178 42.8667 75.3311 42.0533 74.1578 41.04L75.9578 37C77.1045 37.9067 78.5045 38.6533 80.1578 39.24C81.8378 39.8 83.5178 40.08 85.1978 40.08C87.2778 40.08 88.8245 39.7467 89.8378 39.08C90.8778 38.4133 91.3978 37.5333 91.3978 36.44C91.3978 35.64 91.1045 34.9867 90.5178 34.48C89.9578 33.9467 89.2378 33.5333 88.3578 33.24C87.4778 32.9467 86.2778 32.6133 84.7578 32.24C82.6245 31.7333 80.8911 31.2267 79.5578 30.72C78.2511 30.2133 77.1178 29.4267 76.1578 28.36C75.2245 27.2667 74.7578 25.8 74.7578 23.96C74.7578 22.4133 75.1711 21.0133 75.9978 19.76C76.8511 18.48 78.1178 17.4667 79.7978 16.72C81.5045 15.9733 83.5845 15.6 86.0378 15.6C87.7445 15.6 89.4245 15.8133 91.0778 16.24C92.7311 16.6667 94.1578 17.28 95.3578 18.08L93.7178 22.12C92.4911 21.4 91.2111 20.8533 89.8778 20.48C88.5445 20.1067 87.2511 19.92 85.9978 19.92C83.9445 19.92 82.4111 20.2667 81.3978 20.96C80.4111 21.6533 79.9178 22.5733 79.9178 23.72C79.9178 24.52 80.1978 25.1733 80.7578 25.68C81.3445 26.1867 82.0778 26.5867 82.9578 26.88C83.8378 27.1733 85.0378 27.5067 86.5578 27.88C88.6378 28.36 90.3445 28.8667 91.6778 29.4C93.0111 29.9067 94.1445 30.6933 95.0778 31.76C96.0378 32.8267 96.5178 34.2667 96.5178 36.08C96.5178 37.6267 96.0911 39.0267 95.2378 40.28C94.4111 41.5333 93.1445 42.5333 91.4378 43.28C89.7311 44.0267 87.6511 44.4 85.1978 44.4Z" fill="white"/>
<path d="M112.12 41.1C111.093 41.1 110.113 40.9267 109.18 40.58C108.26 40.22 107.54 39.76 107.02 39.2L107.48 38.44C107.973 38.96 108.633 39.3867 109.46 39.72C110.3 40.04 111.18 40.2 112.1 40.2C113.433 40.2 114.44 39.9467 115.12 39.44C115.8 38.9333 116.14 38.2733 116.14 37.46C116.14 36.8333 115.96 36.3333 115.6 35.96C115.24 35.5867 114.793 35.3 114.26 35.1C113.727 34.9 113.007 34.6933 112.1 34.48C111.073 34.2267 110.247 33.98 109.62 33.74C109.007 33.5 108.48 33.1333 108.04 32.64C107.613 32.1333 107.4 31.46 107.4 30.62C107.4 29.94 107.58 29.32 107.94 28.76C108.3 28.1867 108.847 27.7333 109.58 27.4C110.327 27.0667 111.253 26.9 112.36 26.9C113.133 26.9 113.893 27.0133 114.64 27.24C115.387 27.4667 116.033 27.7733 116.58 28.16L116.2 28.98C115.64 28.5933 115.02 28.3 114.34 28.1C113.673 27.9 113.013 27.8 112.36 27.8C111.067 27.8 110.087 28.06 109.42 28.58C108.753 29.1 108.42 29.7733 108.42 30.6C108.42 31.2267 108.6 31.7267 108.96 32.1C109.32 32.4733 109.767 32.76 110.3 32.96C110.833 33.16 111.56 33.3733 112.48 33.6C113.507 33.8533 114.327 34.1 114.94 34.34C115.553 34.58 116.073 34.9467 116.5 35.44C116.94 35.92 117.16 36.5733 117.16 37.4C117.16 38.08 116.973 38.7 116.6 39.26C116.24 39.82 115.68 40.2667 114.92 40.6C114.16 40.9333 113.227 41.1 112.12 41.1ZM120.308 30.56H121.308V41H120.308V30.56ZM120.808 28.02C120.581 28.02 120.388 27.9467 120.228 27.8C120.068 27.64 119.988 27.4467 119.988 27.22C119.988 26.9933 120.068 26.8 120.228 26.64C120.388 26.48 120.581 26.4 120.808 26.4C121.034 26.4 121.228 26.48 121.388 26.64C121.548 26.7867 121.628 26.9733 121.628 27.2C121.628 27.4267 121.548 27.62 121.388 27.78C121.228 27.94 121.034 28.02 120.808 28.02ZM128.162 41.08C127.322 41.08 126.522 40.9533 125.762 40.7C125.002 40.4467 124.409 40.1267 123.982 39.74L124.442 38.94C124.869 39.3 125.416 39.6 126.082 39.84C126.762 40.08 127.469 40.2 128.202 40.2C129.256 40.2 130.029 40.0267 130.522 39.68C131.029 39.3333 131.282 38.8533 131.282 38.24C131.282 37.8 131.142 37.4533 130.862 37.2C130.596 36.9467 130.262 36.76 129.862 36.64C129.462 36.52 128.909 36.3933 128.202 36.26C127.376 36.1133 126.709 35.9533 126.202 35.78C125.696 35.6067 125.262 35.3267 124.902 34.94C124.542 34.5533 124.362 34.02 124.362 33.34C124.362 32.5133 124.702 31.8333 125.382 31.3C126.076 30.7533 127.056 30.48 128.322 30.48C128.989 30.48 129.649 30.5733 130.302 30.76C130.956 30.9467 131.489 31.1933 131.902 31.5L131.442 32.3C131.016 31.9933 130.529 31.76 129.982 31.6C129.436 31.44 128.876 31.36 128.302 31.36C127.329 31.36 126.596 31.54 126.102 31.9C125.609 32.26 125.362 32.7333 125.362 33.32C125.362 33.7867 125.502 34.1533 125.782 34.42C126.062 34.6733 126.402 34.8667 126.802 35C127.216 35.12 127.789 35.2533 128.522 35.4C129.336 35.5467 129.989 35.7067 130.482 35.88C130.989 36.04 131.416 36.3067 131.762 36.68C132.109 37.0533 132.282 37.5667 132.282 38.22C132.282 39.0867 131.922 39.78 131.202 40.3C130.482 40.82 129.469 41.08 128.162 41.08ZM140.253 40.34C140 40.58 139.68 40.7667 139.293 40.9C138.92 41.02 138.526 41.08 138.113 41.08C137.206 41.08 136.506 40.8333 136.013 40.34C135.52 39.8333 135.273 39.1333 135.273 38.24V31.42H133.353V30.56H135.273V28.28H136.273V30.56H139.593V31.42H136.273V38.14C136.273 38.82 136.433 39.34 136.753 39.7C137.086 40.0467 137.573 40.22 138.213 40.22C138.866 40.22 139.406 40.0267 139.833 39.64L140.253 40.34ZM151.491 36.02H142.511C142.537 36.8333 142.744 37.56 143.131 38.2C143.517 38.8267 144.037 39.3133 144.691 39.66C145.357 40.0067 146.104 40.18 146.931 40.18C147.611 40.18 148.237 40.06 148.811 39.82C149.397 39.5667 149.884 39.2 150.271 38.72L150.851 39.38C150.397 39.9267 149.824 40.3467 149.131 40.64C148.451 40.9333 147.711 41.08 146.911 41.08C145.871 41.08 144.944 40.8533 144.131 40.4C143.317 39.9467 142.677 39.32 142.211 38.52C141.757 37.72 141.531 36.8067 141.531 35.78C141.531 34.7667 141.744 33.86 142.171 33.06C142.611 32.2467 143.211 31.6133 143.971 31.16C144.731 30.7067 145.584 30.48 146.531 30.48C147.477 30.48 148.324 30.7067 149.071 31.16C149.831 31.6 150.424 32.22 150.851 33.02C151.291 33.82 151.511 34.7267 151.511 35.74L151.491 36.02ZM146.531 31.36C145.797 31.36 145.137 31.5267 144.551 31.86C143.964 32.18 143.491 32.64 143.131 33.24C142.784 33.8267 142.584 34.4933 142.531 35.24H150.531C150.491 34.4933 150.291 33.8267 149.931 33.24C149.571 32.6533 149.097 32.1933 148.511 31.86C147.924 31.5267 147.264 31.36 146.531 31.36ZM167.604 30.48C168.898 30.48 169.911 30.86 170.644 31.62C171.391 32.38 171.764 33.4733 171.764 34.9V41H170.764V34.98C170.764 33.8067 170.478 32.9133 169.904 32.3C169.331 31.6867 168.531 31.38 167.504 31.38C166.331 31.38 165.398 31.7467 164.704 32.48C164.024 33.2133 163.684 34.2 163.684 35.44V41H162.684V34.98C162.684 33.8067 162.398 32.9133 161.824 32.3C161.251 31.6867 160.451 31.38 159.424 31.38C158.251 31.38 157.318 31.7467 156.624 32.48C155.944 33.2133 155.604 34.2 155.604 35.44V41H154.604V30.56H155.564V32.8C155.911 32.0667 156.424 31.5 157.104 31.1C157.798 30.6867 158.618 30.48 159.564 30.48C160.511 30.48 161.311 30.6933 161.964 31.12C162.631 31.5467 163.104 32.1733 163.384 33C163.731 32.2267 164.271 31.6133 165.004 31.16C165.751 30.7067 166.618 30.48 167.604 30.48ZM179.413 30.48C180.707 30.48 181.7 30.8133 182.393 31.48C183.087 32.1333 183.433 33.1 183.433 34.38V41H182.473V39.14C182.14 39.7533 181.653 40.2333 181.013 40.58C180.373 40.9133 179.607 41.08 178.713 41.08C177.553 41.08 176.633 40.8067 175.953 40.26C175.287 39.7133 174.953 38.9933 174.953 38.1C174.953 37.2333 175.26 36.5333 175.873 36C176.5 35.4533 177.493 35.18 178.853 35.18H182.433V34.34C182.433 33.3667 182.167 32.6267 181.633 32.12C181.113 31.6133 180.347 31.36 179.333 31.36C178.64 31.36 177.973 31.48 177.333 31.72C176.707 31.96 176.173 32.28 175.733 32.68L175.233 31.96C175.753 31.4933 176.38 31.1333 177.113 30.88C177.847 30.6133 178.613 30.48 179.413 30.48ZM178.853 40.26C179.72 40.26 180.453 40.06 181.053 39.66C181.667 39.26 182.127 38.68 182.433 37.92V35.96H178.873C177.847 35.96 177.1 36.1467 176.633 36.52C176.18 36.8933 175.953 37.4067 175.953 38.06C175.953 38.74 176.207 39.28 176.713 39.68C177.22 40.0667 177.933 40.26 178.853 40.26ZM190.194 41.08C189.354 41.08 188.554 40.9533 187.794 40.7C187.034 40.4467 186.44 40.1267 186.014 39.74L186.474 38.94C186.9 39.3 187.447 39.6 188.114 39.84C188.794 40.08 189.5 40.2 190.234 40.2C191.287 40.2 192.06 40.0267 192.554 39.68C193.06 39.3333 193.314 38.8533 193.314 38.24C193.314 37.8 193.174 37.4533 192.894 37.2C192.627 36.9467 192.294 36.76 191.894 36.64C191.494 36.52 190.94 36.3933 190.234 36.26C189.407 36.1133 188.74 35.9533 188.234 35.78C187.727 35.6067 187.294 35.3267 186.934 34.94C186.574 34.5533 186.394 34.02 186.394 33.34C186.394 32.5133 186.734 31.8333 187.414 31.3C188.107 30.7533 189.087 30.48 190.354 30.48C191.02 30.48 191.68 30.5733 192.334 30.76C192.987 30.9467 193.52 31.1933 193.934 31.5L193.474 32.3C193.047 31.9933 192.56 31.76 192.014 31.6C191.467 31.44 190.907 31.36 190.334 31.36C189.36 31.36 188.627 31.54 188.134 31.9C187.64 32.26 187.394 32.7333 187.394 33.32C187.394 33.7867 187.534 34.1533 187.814 34.42C188.094 34.6733 188.434 34.8667 188.834 35C189.247 35.12 189.82 35.2533 190.554 35.4C191.367 35.5467 192.02 35.7067 192.514 35.88C193.02 36.04 193.447 36.3067 193.794 36.68C194.14 37.0533 194.314 37.5667 194.314 38.22C194.314 39.0867 193.954 39.78 193.234 40.3C192.514 40.82 191.5 41.08 190.194 41.08Z" fill="white"/>
</svg>
